<?xml version="1.0" encoding="utf-8"?>
<!-- Generator: Adobe Illustrator 15.1.0, SVG Export Plug-In . SVG Version: 6.00 Build 0)  -->
<!DOCTYPE svg PUBLIC "-//W3C//DTD SVG 1.1//EN" "http://www.w3.org/Graphics/SVG/1.1/DTD/svg11.dtd">
<svg version="1.1" id="Layer_1" xmlns="http://www.w3.org/2000/svg" xmlns:xlink="http://www.w3.org/1999/xlink" x="0px" y="0px"
	 width="612px" height="179px" viewBox="0 293.5 612 179" enable-background="new 0 293.5 612 179" xml:space="preserve">
<circle id="XMLID_513_" fill="#0C418E" cx="90.435" cy="377.034" r="74.881"/>
<g>
	<path id="XMLID_369_" fill="#6D6E71" d="M474.61,448.691c-0.601,0-1.134,0.396-1.312,0.956l-2.677,8.373l-2.418-8.373
		c-0.15-0.56-0.696-0.956-1.271-0.956c-0.587,0-1.093,0.396-1.257,0.956l-2.39,8.346l-2.705-8.346
		c-0.178-0.56-0.71-0.956-1.312-0.956c-0.765,0-1.38,0.629-1.38,1.38c0,0.628,3.634,11.542,4.085,12.908
		c0.178,0.56,0.71,0.956,1.311,0.956c0.602,0,1.161-0.383,1.312-0.956l2.35-8.169l2.35,8.169c0.15,0.587,0.696,0.956,1.298,0.956
		c0.601,0,1.134-0.396,1.311-0.956c0.451-1.366,4.085-12.28,4.085-12.908C475.99,449.32,475.361,448.691,474.61,448.691"/>
	<path id="XMLID_368_" fill="#6D6E71" d="M520.302,454.524l3.523-3.456c0.273-0.26,0.424-0.602,0.424-0.983
		c0-0.765-0.628-1.38-1.38-1.38c-0.355,0-0.71,0.164-0.956,0.396l-6.475,6.338v-5.245c0-0.807-0.642-1.503-1.476-1.503
		c-0.833,0-1.488,0.67-1.488,1.503v12.252c0,0.82,0.669,1.489,1.488,1.489c0.82,0,1.476-0.696,1.476-1.489v-3.142
		c0.942-0.942,1.898-1.857,2.841-2.786l4.194,6.762c0.245,0.396,0.71,0.669,1.188,0.669c0.766,0,1.366-0.629,1.366-1.38
		c0-0.246-0.068-0.491-0.205-0.71L520.302,454.524z"/>
	<path id="XMLID_367_" fill="#6D6E71" d="M544.533,448.691c-0.601,0-1.134,0.396-1.312,0.956l-2.677,8.373l-2.418-8.373
		c-0.15-0.56-0.696-0.956-1.271-0.956c-0.587,0-1.093,0.396-1.257,0.956l-2.39,8.346l-2.705-8.346
		c-0.178-0.56-0.71-0.956-1.312-0.956c-0.765,0-1.379,0.629-1.379,1.38c0,0.628,3.646,11.542,4.084,12.908
		c0.178,0.56,0.71,0.956,1.312,0.956c0.601,0,1.161-0.383,1.324-0.956l2.336-8.169l2.35,8.169c0.15,0.587,0.696,0.956,1.298,0.956
		c0.601,0,1.134-0.396,1.312-0.956c0.45-1.366,4.084-12.28,4.084-12.908C545.913,449.32,545.298,448.691,544.533,448.691"/>
	<path id="XMLID_366_" fill="#6D6E71" d="M572.809,448.691c-0.533,0-1.024,0.314-1.243,0.806l-4.18,9.985l-4.152-9.985
		c-0.205-0.519-0.738-0.806-1.271-0.806c-0.737,0-1.366,0.669-1.366,1.407c0,0.178,0.041,0.382,0.109,0.56l5.423,12.485
		c0.219,0.519,0.71,0.806,1.271,0.806c0.532,0,1.052-0.314,1.243-0.806l5.409-12.485c0.082-0.178,0.137-0.382,0.137-0.587
		C574.188,449.32,573.573,448.691,572.809,448.691"/>
	<path id="XMLID_365_" fill="#6D6E71" d="M587.52,460.972h-6.966v-3.306h3.688c0.765,0,1.38-0.602,1.38-1.38
		s-0.628-1.407-1.38-1.407h-3.688v-3.196h6.624c0.766,0,1.407-0.628,1.407-1.406c0-0.766-0.642-1.38-1.407-1.38h-8.1
		c-0.833,0-1.489,0.642-1.489,1.476v11.897c0,0.819,0.67,1.488,1.489,1.488h8.441c0.766,0,1.407-0.601,1.407-1.38
		C588.927,461.613,588.285,460.972,587.52,460.972"/>
	<path id="XMLID_362_" fill="#6D6E71" d="M485.593,448.623c-4.289,0-7.636,3.415-7.636,7.704s3.347,7.731,7.636,7.731
		s7.608-3.442,7.608-7.731C493.215,452.038,489.882,448.623,485.593,448.623 M485.593,461.312c-2.787,0-4.672-2.24-4.672-4.972
		c0-2.745,1.871-4.958,4.672-4.958c2.786,0,4.644,2.213,4.644,4.958C490.236,459.072,488.379,461.312,485.593,461.312"/>
	<path id="XMLID_359_" fill="#6D6E71" d="M508.896,453.363c0-3.265-2.486-4.467-5.423-4.467h-5.532
		c-0.819,0-1.475,0.642-1.475,1.476v12.102c0,0.82,0.655,1.476,1.475,1.476c0.807,0,1.489-0.642,1.489-1.476v-4.712h4.084
		c0.027,0.109,2.432,4.931,2.664,5.382c0.245,0.491,0.737,0.806,1.27,0.806c0.807,0,1.448-0.642,1.448-1.435
		c0-0.71-2.008-4.426-2.432-5.272C508.09,456.546,508.896,455.098,508.896,453.363 M503.896,455.207h-4.467v-3.565h4.467
		c1.12,0,2.035,0.629,2.035,1.804C505.918,454.634,504.989,455.207,503.896,455.207"/>
	<path id="XMLID_356_" fill="#6D6E71" d="M546.5,461.982c-0.068,0.178-0.109,0.382-0.109,0.587c0,0.765,0.602,1.38,1.366,1.38
		c0.328,0,0.615-0.109,0.847-0.342c0.15-0.109,0.287-0.273,0.369-0.45c0.082-0.178,1.926-3.866,6.967-4.398l1.967,4.385
		c0.232,0.491,0.71,0.806,1.257,0.806c0.778,0,1.406-0.642,1.406-1.407c0-0.178-0.041-0.382-0.137-0.56l-5.709-12.485
		c-0.205-0.464-0.697-0.806-1.229-0.806c-0.533,0-1.052,0.287-1.298,0.806L546.5,461.982z M554.887,456.409
		c-1.311,0.219-2.431,0.614-3.387,1.093l1.967-4.262L554.887,456.409z"/>
	<g>
		<path fill="#6D6E71" d="M432.566,449.552c0-0.3,0.137-0.478,0.41-0.478h0.942c0.341,0,0.409,0.164,0.409,0.478v5.041
			c0.711-0.533,1.994-0.834,3.333-0.834c2.35,0,3.442,1.421,3.442,5.041c0,4.371-1.584,5.313-4.754,5.313
			c-1.133,0-2.253-0.164-2.978-0.41c-0.313-0.096-0.56-0.273-0.669-0.519c-0.096-0.178-0.137-0.438-0.137-0.834V449.552
			L432.566,449.552z M434.438,462.174c0.082,0.122,0.232,0.19,0.438,0.231c0.409,0.123,1.065,0.178,1.516,0.178
			c2.486,0,2.951-0.942,2.951-3.66c0-2.432-0.273-3.593-2.268-3.593c-0.738,0-1.857,0.123-2.391,0.479
			c-0.137,0.081-0.232,0.163-0.301,0.272c-0.041,0.096-0.041,0.26-0.041,0.41v5.163
			C434.342,461.887,434.355,462.078,434.438,462.174z"/>
		<path fill="#6D6E71" d="M443.713,454.415c0-0.26,0.082-0.451,0.409-0.451h0.942c0.301,0,0.41,0.178,0.41,0.451v6.146
			c0,0.533,0.041,1.011,0.137,1.271c0.178,0.478,0.614,0.71,1.734,0.71c1.284,0,1.898-0.219,2.309-0.409
			c0.123-0.055,0.273-0.137,0.383-0.26c0.082-0.096,0.123-0.301,0.123-0.561v-6.897c0-0.26,0.123-0.451,0.437-0.451h0.929
			c0.273,0,0.41,0.164,0.41,0.451v9.001c0,0.943-0.055,1.694-0.273,2.432c-0.573,1.912-2.704,2.623-6.229,2.623
			c-0.355,0-0.52-0.082-0.561-0.355c-0.04-0.26-0.054-0.532-0.054-0.71c0-0.273,0.177-0.492,0.45-0.492
			c3.415-0.123,4.248-0.614,4.604-1.462c0.178-0.45,0.232-0.97,0.232-1.543v-0.492c-0.848,0.492-2.213,0.697-3.333,0.697
			c-1.763,0-2.555-0.479-2.842-1.271c-0.177-0.479-0.231-1.12-0.231-1.939v-6.488H443.713z"/>
	</g>
</g>
<g>
	<path fill="#002D5C" d="M605.522,363.702c0,3.565-2.745,6.379-6.311,6.379c-3.537,0-6.352-2.8-6.352-6.379
		c0-3.497,2.814-6.297,6.352-6.297C602.791,357.405,605.522,360.205,605.522,363.702z M593.898,363.702
		c0,3.128,2.268,5.601,5.354,5.601c3.019,0,5.231-2.486,5.231-5.56c0-3.128-2.227-5.642-5.272-5.642
		C596.152,358.088,593.898,360.615,593.898,363.702z M598.229,366.994h-1.434v-6.297c0.56-0.109,1.352-0.191,2.362-0.191
		c1.161,0,1.694,0.191,2.145,0.464c0.342,0.273,0.602,0.765,0.602,1.379c0,0.697-0.533,1.229-1.271,1.462v0.082
		c0.602,0.232,0.942,0.696,1.12,1.53c0.191,0.956,0.301,1.338,0.451,1.571h-1.544c-0.191-0.232-0.301-0.806-0.492-1.53
		c-0.108-0.697-0.491-0.997-1.27-0.997h-0.684v2.527H598.229z M598.27,363.429h0.684c0.792,0,1.434-0.273,1.434-0.929
		c0-0.574-0.409-0.956-1.312-0.956c-0.382,0-0.642,0.041-0.792,0.082v1.803H598.27z"/>
</g>
<g>
	<path fill="#6D6E71" d="M592.901,450.74c0,0.847-0.655,1.517-1.502,1.517c-0.848,0-1.517-0.67-1.517-1.517
		c0-0.833,0.669-1.502,1.517-1.502C592.246,449.238,592.901,449.907,592.901,450.74z M590.115,450.74
		c0,0.752,0.546,1.339,1.284,1.339c0.724,0,1.256-0.587,1.256-1.325c0-0.751-0.532-1.353-1.256-1.353
		C590.661,449.401,590.115,450.003,590.115,450.74z M591.153,451.532h-0.342v-1.502c0.137-0.027,0.328-0.041,0.561-0.041
		c0.272,0,0.409,0.041,0.505,0.109c0.082,0.068,0.137,0.178,0.137,0.327c0,0.164-0.123,0.287-0.301,0.355v0.014
		c0.137,0.055,0.219,0.164,0.273,0.369c0.041,0.232,0.068,0.314,0.109,0.382h-0.369c-0.041-0.054-0.068-0.19-0.123-0.368
		c-0.027-0.164-0.122-0.232-0.3-0.232h-0.164v0.587H591.153z M591.167,450.672h0.164c0.19,0,0.341-0.068,0.341-0.219
		c0-0.136-0.096-0.231-0.313-0.231c-0.096,0-0.15,0.014-0.191,0.014V450.672L591.167,450.672z"/>
</g>
<text transform="matrix(1 0 0 1 179.5039 416.5713)" fill="#142348" font-family="'MyriadPro-BoldIt'" font-size="118.1331">leadpac</text>
<g>
	
		<line fill="none" stroke="#FFFFFF" stroke-width="5" stroke-linecap="round" stroke-miterlimit="10" x1="89.446" y1="401.5" x2="89.446" y2="440.949"/>
	
		<polyline fill="none" stroke="#FFFFFF" stroke-width="5" stroke-linecap="round" stroke-linejoin="round" stroke-miterlimit="10" points="
		103.984,416.062 89.422,401.5 74.884,416.062 	"/>
</g>
<g>
	
		<line fill="none" stroke="#FFFFFF" stroke-width="5" stroke-linecap="round" stroke-miterlimit="10" x1="111.34" y1="388.921" x2="145.504" y2="408.646"/>
	
		<polyline fill="none" stroke="#FFFFFF" stroke-width="5" stroke-linecap="round" stroke-linejoin="round" stroke-miterlimit="10" points="
		131.221,383.612 111.328,388.942 116.67,408.813 	"/>
</g>
<g>
	
		<line fill="none" stroke="#FFFFFF" stroke-width="5" stroke-linecap="round" stroke-miterlimit="10" x1="111.393" y1="363.671" x2="145.557" y2="343.946"/>
	
		<polyline fill="none" stroke="#FFFFFF" stroke-width="5" stroke-linecap="round" stroke-linejoin="round" stroke-miterlimit="10" points="
		116.735,343.799 111.405,363.691 131.285,369.001 	"/>
</g>
<g>
	
		<line fill="none" stroke="#FFFFFF" stroke-width="5" stroke-linecap="round" stroke-miterlimit="10" x1="89.553" y1="351" x2="89.553" y2="311.551"/>
	
		<polyline fill="none" stroke="#FFFFFF" stroke-width="5" stroke-linecap="round" stroke-linejoin="round" stroke-miterlimit="10" points="
		75.014,336.438 89.576,351 104.115,336.438 	"/>
</g>
<g>
	
		<line fill="none" stroke="#FFFFFF" stroke-width="5" stroke-linecap="round" stroke-miterlimit="10" x1="67.659" y1="363.579" x2="33.495" y2="343.854"/>
	
		<polyline fill="none" stroke="#FFFFFF" stroke-width="5" stroke-linecap="round" stroke-linejoin="round" stroke-miterlimit="10" points="
		47.777,368.889 67.67,363.559 62.33,343.687 	"/>
</g>
<g>
	
		<line fill="none" stroke="#FFFFFF" stroke-width="5" stroke-linecap="round" stroke-miterlimit="10" x1="67.605" y1="388.829" x2="33.441" y2="408.553"/>
	
		<polyline fill="none" stroke="#FFFFFF" stroke-width="5" stroke-linecap="round" stroke-linejoin="round" stroke-miterlimit="10" points="
		62.264,408.701 67.594,388.809 47.714,383.498 	"/>
</g>
<circle fill="#FFFFFF" cx="89.5" cy="376" r="8.25"/>
</svg>
